# xmcd
#
# Track frame offsets:
#	182
#	104057
#	163745
#	218282
#
# Disc length: 3741 seconds
#
# Revision: 3
# Processed by: cddbd v1.5.2PL0 Copyright (c) Steve Scherf et al.
# Submitted via: audiograbber 1.83.01
#
DISCID=2f0e9b04
DTITLE=Johannes Brahms - Piano Concerto No.1 D-minor Op.15 - RhapsodyOp.53
DYEAR=1993
DGENRE=Classical
TTITLE0=Concerto for Piano and Orchestra No.1, Op.15 - Maestoso
TTITLE1=Concerto for Piano and Orchestra No.1, Op.15 - Adagio
TTITLE2=Concerto for Piano and Orchestra No.1, Op.15 - Rondo Allegro ma nontrop
TTITLE2=po
TTITLE3=Rhapsody for Alto, Choir and Orchestra, Op.53 (ADD)
EXTD=1,2,3 Concerto for Piano and Orchestra:\nDubravka Tomsic, piano\nRSO Ljubl
EXTD=jana, conductor Anton Nanut\n\n4, Rhapsody:\nMaura Moreira, alto\nInnsbruc
EXTD=k Symphony, conductor Robert Wagner\n
EXTT0=
EXTT1=
EXTT2=
EXTT3=
PLAYORDER=
